<?xml version="1.0" encoding="UTF-8"?>
<svg id="Layer_2" data-name="Layer 2" xmlns="http://www.w3.org/2000/svg" viewBox="0 0 280.27 188.48">
  <defs>
    <style>
      .cls-1 {
        fill: #7c51a1;
      }

      .cls-2 {
        fill: #414042;
      }
    </style>
  </defs>
  <g id="Layer_1-2" data-name="Layer 1">
    <g>
      <g>
        <path class="cls-1" d="M54.75,179.86c.3.06.44.18.44.36,0,.11-.04.27-.13.49l-1.66,4.38-1.72-4.46c-.07-.18-.1-.3-.1-.37,0-.19.14-.33.42-.4v-.2h-3.06v.2c.28.05.41.17.41.36,0,.06-.04.19-.12.38l-1.8,4.48-1.67-4.46c-.07-.18-.1-.31-.1-.41,0-.19.13-.31.39-.36v-.2h-2.93v.2c.19.04.33.11.42.22.1.11.2.32.32.63l2.41,6.21c.12.3.17.49.17.55,0,.23-.14.37-.41.42v.2h2.71v-.2c-.3-.08-.46-.21-.46-.4,0-.07.06-.22.17-.47l1.92-4.87,1.86,4.77c.13.29.19.48.19.56,0,.23-.14.37-.43.41v.2h2.75v-.2c-.29-.05-.44-.17-.44-.38,0-.1.06-.3.17-.59l2.41-6.21c.13-.32.23-.53.31-.62.08-.09.22-.17.43-.22v-.2h-2.9v.2Z"/>
        <path class="cls-1" d="M70.24,186.61c-.07.06-.16.09-.28.09h-5.42v-2.31h3.42c.12,0,.22.03.28.09.07.06.12.16.16.31h.2v-2.13h-.2c-.04.15-.09.25-.16.31-.07.06-.16.09-.28.09h-3.42v-2h5.27c.12,0,.22.03.28.09.07.06.12.16.16.31h.2v-2.18h-.2c-.04.15-.09.25-.16.31-.07.06-.16.09-.28.09h-7.5v.2c.15.04.25.09.31.16.06.07.09.16.09.29v7.12c0,.13-.03.22-.09.29-.06.07-.16.12-.31.16v.2h7.65c.12,0,.22.03.28.09.07.06.12.16.16.31h.2v-2.18h-.2c-.04.15-.09.25-.16.31Z"/>
        <path class="cls-1" d="M83.65,186.61c-.07.06-.16.09-.29.09h-5.18v-6.38c0-.13.03-.22.09-.29.06-.07.16-.12.31-.16v-.2h-2.63v.2c.15.04.25.09.31.16.06.07.09.16.09.29v7.12c0,.13-.03.22-.09.29-.06.07-.16.12-.31.16v.2h7.41c.13,0,.22.03.29.09.07.06.12.16.16.31h.2v-2.18h-.2c-.04.15-.09.25-.16.31Z"/>
        <path class="cls-1" d="M96.63,186.61c-.07.06-.16.09-.29.09h-5.18v-6.38c0-.13.03-.22.09-.29.06-.07.16-.12.31-.16v-.2h-2.63v.2c.15.04.25.09.31.16.06.07.09.16.09.29v7.12c0,.13-.03.22-.09.29-.06.07-.16.12-.31.16v.2h7.41c.13,0,.22.03.29.09.07.06.12.16.16.31h.2v-2.18h-.2c-.04.15-.09.25-.16.31Z"/>
        <path class="cls-1" d="M108.93,179.86c.15.04.25.09.31.16.06.07.09.16.09.28v5l-4.64-4.83c-.12-.12-.17-.23-.17-.33,0-.14.09-.24.27-.28v-.2h-2.86v.2c.15.04.25.09.31.16.06.07.09.16.09.28v7.13c0,.13-.03.22-.09.29-.06.07-.16.12-.31.16v.2h2.47v-.2c-.15-.04-.25-.09-.31-.16-.06-.07-.09-.16-.09-.29v-5.12l4.72,4.87c.2.2.3.35.3.43,0,.14-.09.23-.26.26v.2h2.65v-.2c-.15-.04-.25-.09-.31-.16-.06-.07-.09-.16-.09-.29v-7.13c0-.12.03-.22.09-.28.06-.07.16-.12.31-.16v-.2h-2.47v.2Z"/>
        <path class="cls-1" d="M124.9,186.61c-.07.06-.16.09-.28.09h-5.42v-2.31h3.42c.12,0,.22.03.28.09.07.06.12.16.16.31h.2v-2.13h-.2c-.04.15-.09.25-.16.31-.07.06-.16.09-.28.09h-3.42v-2h5.27c.12,0,.22.03.28.09.07.06.12.16.16.31h.2v-2.18h-.2c-.04.15-.09.25-.16.31-.07.06-.16.09-.28.09h-7.5v.2c.15.04.25.09.31.16.06.07.09.16.09.29v7.12c0,.13-.03.22-.09.29-.06.07-.16.12-.31.16v.2h7.65c.12,0,.22.03.28.09.07.06.12.16.16.31h.2v-2.18h-.2c-.04.15-.09.25-.16.31Z"/>
        <path class="cls-1" d="M137.43,182.36l1.01-1.98-.17-.09c-.12.09-.22.14-.3.14-.05,0-.2-.05-.44-.14-.69-.29-1.27-.49-1.74-.6-.47-.11-.97-.16-1.51-.16-1.28,0-2.24.31-2.89.92-.49.47-.73,1.05-.73,1.77,0,.43.1.81.29,1.15.21.37.51.65.88.83.26.13.53.23.79.29.26.06.71.12,1.35.19l.95.1c.64.07,1.06.15,1.27.23.3.12.45.32.45.6,0,.19-.06.36-.19.53-.13.17-.3.31-.51.41-.39.19-.85.28-1.4.28-.5,0-1.03-.09-1.59-.26-.56-.17-.97-.38-1.24-.62-.18-.16-.27-.33-.27-.51v-.08l-.18-.09-.91,2.07.18.09c.12-.09.2-.14.25-.14.05,0,.18.05.41.16,1.09.53,2.19.8,3.3.8.62,0,1.2-.08,1.75-.23.73-.2,1.27-.51,1.61-.93.38-.46.57-.99.57-1.58,0-.37-.08-.73-.24-1.05-.16-.33-.38-.59-.66-.79-.28-.19-.59-.34-.95-.45-.36-.11-.82-.19-1.4-.25l-.97-.1c-.65-.07-1.07-.13-1.27-.18-.38-.12-.57-.33-.57-.65,0-.19.08-.37.22-.54.15-.16.35-.29.59-.37.33-.11.72-.16,1.15-.16.99,0,1.85.25,2.58.76.24.16.36.31.36.45v.1s.17.1.17.1Z"/>
        <path class="cls-1" d="M150.57,182.36l1.01-1.98-.17-.09c-.12.09-.22.14-.3.14-.05,0-.2-.05-.44-.14-.69-.29-1.27-.49-1.74-.6s-.97-.16-1.51-.16c-1.28,0-2.24.31-2.89.92-.49.47-.73,1.05-.73,1.77,0,.43.1.81.29,1.15.21.37.51.65.88.83.26.13.53.23.79.29.26.06.71.12,1.35.19l.95.1c.64.07,1.06.15,1.27.23.3.12.45.32.45.6,0,.19-.06.36-.19.53-.13.17-.3.31-.51.41-.39.19-.85.28-1.4.28-.5,0-1.03-.09-1.59-.26-.56-.17-.97-.38-1.24-.62-.18-.16-.27-.33-.27-.51v-.08l-.18-.09-.91,2.07.18.09c.12-.09.2-.14.25-.14.05,0,.18.05.41.16,1.09.53,2.19.8,3.3.8.62,0,1.2-.08,1.75-.23.73-.2,1.27-.51,1.61-.93.38-.46.57-.99.57-1.58,0-.37-.08-.73-.24-1.05-.16-.33-.38-.59-.66-.79-.28-.19-.59-.34-.95-.45-.36-.11-.82-.19-1.4-.25l-.97-.1c-.65-.07-1.07-.13-1.27-.18-.38-.12-.57-.33-.57-.65,0-.19.08-.37.22-.54.15-.16.35-.29.59-.37.33-.11.72-.16,1.15-.16.99,0,1.85.25,2.58.76.24.16.36.31.36.45v.1s.17.1.17.1Z"/>
        <path class="cls-1" d="M170.83,187.02c-.14-.12-.28-.24-.42-.35.05-.08.1-.16.14-.25.16-.36.27-.75.31-1.17.04-.42.02-.86-.08-1.33-.03-.17-.01-.31.07-.42.08-.11.21-.16.4-.16h.19v-.13h-2.51v.13h.19c.2,0,.37.06.5.16.13.11.24.25.32.42.15.3.24.63.25.98.02.35-.03.7-.14,1.04-.03.11-.08.21-.13.31-.33-.28-.63-.53-.9-.77-.29-.25-.55-.48-.77-.69-.22-.21-.43-.39-.61-.55-.65-.58-1.15-1.1-1.49-1.55-.35-.46-.52-.95-.52-1.48s.16-.94.47-1.28c.32-.34.71-.51,1.19-.51.36,0,.68.08.94.23.27.16.47.38.62.67.15.29.23.64.23,1.04h.13l.23-1.43c-.15-.19-.34-.34-.57-.47-.23-.13-.48-.23-.74-.31-.27-.08-.55-.11-.83-.11-.39,0-.74.05-1.05.16-.31.11-.58.26-.8.45-.22.19-.39.42-.51.68-.12.26-.18.55-.18.86,0,.49.09.92.27,1.31.06.13.14.26.22.38-.14.07-.28.14-.41.23-.17.12-.32.25-.46.39-.14.14-.26.3-.36.47-.1.18-.18.37-.23.58-.05.21-.08.43-.08.68,0,.38.05.72.16,1.03.11.31.27.58.49.82.21.24.48.44.79.61.31.16.67.29,1.08.37.41.08.86.13,1.34.13s.91-.07,1.3-.22.72-.36,1-.62l.03-.04c.34.27.69.47,1.03.57.36.11.69.17.99.18.3,0,.53.01.69.01v-.13c-.32-.03-.63-.13-.93-.3-.3-.18-.59-.39-.87-.63ZM168.72,187.57c-.33.17-.71.26-1.14.26-.47,0-.89-.06-1.26-.19-.37-.13-.67-.3-.92-.53-.25-.23-.44-.5-.57-.81-.13-.32-.2-.66-.2-1.04,0-.2.02-.4.05-.6.03-.2.09-.39.16-.57.08-.18.17-.35.29-.52.09-.12.21-.23.33-.34.11.14.22.29.35.43.34.37.76.78,1.24,1.23.19.17.37.34.57.51.19.17.4.35.63.54.22.19.47.4.73.62.15.13.33.27.49.41-.21.24-.46.45-.76.6Z"/>
        <path class="cls-1" d="M191,179.86c.21.02.31.11.31.28,0,.09-.05.22-.15.41l-2.33,4.28-2.3-4.35c-.06-.11-.09-.2-.09-.28,0-.18.1-.29.29-.34v-.2h-3.25v.2c.15.04.25.09.31.16.06.07.09.16.09.28v7.13c0,.13-.03.22-.09.29-.06.07-.16.12-.31.16v.2h2.47v-.2c-.15-.04-.25-.09-.31-.16-.06-.07-.09-.16-.09-.29v-5.17l3.11,5.82,3.28-5.82v5.17c0,.13-.03.22-.09.29-.06.07-.16.12-.31.16v.2h2.63v-.2c-.15-.04-.25-.09-.31-.16-.06-.07-.09-.16-.09-.29v-7.13c0-.12.03-.22.09-.28.06-.07.16-.12.31-.16v-.2h-3.18v.2Z"/>
        <path class="cls-1" d="M204.37,179.52c-1.96.02-3.35.71-4.18,2.04-.43.7-.65,1.47-.65,2.31,0,.58.1,1.12.31,1.65.24.59.59,1.1,1.05,1.52.86.79,2.02,1.19,3.47,1.19,1.94,0,3.34-.68,4.19-2.05.44-.7.65-1.45.65-2.26,0-1.32-.46-2.39-1.36-3.22-.86-.79-2.02-1.19-3.49-1.19ZM207.13,185.05c-.17.41-.41.76-.73,1.04-.53.48-1.2.71-2.01.71s-1.48-.24-2.02-.71c-.63-.56-.95-1.3-.95-2.21s.32-1.65.95-2.21c.54-.48,1.2-.71,2.01-.71.81,0,1.49.25,2.03.71.63.55.95,1.3.95,2.25,0,.39-.07.77-.22,1.13Z"/>
        <path class="cls-1" d="M222.67,186.91l-1.63-2.33c1.53-.23,2.29-1.04,2.29-2.41,0-.4-.08-.78-.23-1.13-.16-.37-.4-.66-.73-.87-.28-.19-.61-.31-.98-.39-.38-.07-.89-.11-1.53-.11h-5.27v.2c.15.04.25.09.31.16.06.07.09.16.09.29v7.13c0,.12-.03.22-.09.28-.06.07-.16.12-.31.16v.2h2.63v-.2c-.14-.04-.25-.09-.31-.16-.06-.07-.09-.16-.09-.29v-2.79h2.25l1.71,2.48c.19.28.29.46.29.54,0,.11-.1.19-.31.22v.2h3.04v-.2c-.19-.01-.36-.08-.49-.19-.13-.12-.34-.38-.63-.79ZM220.55,183.22c-.17.03-.47.04-.89.04h-2.84v-2.21h2.84c.43,0,.73.01.89.03.17.02.32.07.47.16.31.17.47.47.47.91s-.16.74-.47.91c-.14.08-.3.13-.48.15Z"/>
        <path class="cls-1" d="M236.94,186.3c-.04.15-.09.25-.16.31-.07.06-.16.09-.28.09h-5.42v-2.31h3.42c.12,0,.22.03.28.09.07.06.12.16.16.31h.2v-2.13h-.2c-.04.15-.09.25-.16.31-.07.06-.16.09-.28.09h-3.42v-2h5.27c.12,0,.22.03.28.09.07.06.12.16.16.31h.2v-2.18h-.2c-.04.15-.09.25-.16.31-.07.06-.16.09-.28.09h-7.5v.2c.15.04.25.09.31.16.06.07.09.16.09.29v7.12c0,.13-.03.22-.09.29-.06.07-.16.12-.31.16v.2h7.65c.12,0,.22.03.28.09.07.06.12.16.16.31h.2v-2.18h-.2Z"/>
      </g>
      <path class="cls-1" d="M89.79,80.53c9.75,8.29,21.75,14.88,30.83,18.94l.09.02h.13s.09,0,.09,0c5.58-2.03,9.23-5.58,11.48-10.01,2.25-4.43,3.09-9.73,3.09-15.29,0-10.76-3.17-22.47-5.57-30.7-1.01-3.71-1.49-7.4-1.49-11.03,0-11.54,4.81-22.47,12.59-31.21.13-.15.2-.32.2-.49,0-.41-.33-.74-.75-.75-.17,0-.35.07-.5.21-8.16,7.7-13.95,18.01-15.13,29.27,0,0,0,0,0,0,0,0,0,0,0,0h0c-.2,1.51-.29,3.03-.29,4.54,0,5.94,1.39,11.87,2.85,17.5,1.54,6.85,2.79,13.93,2.85,20.88v.03c0,5.69-.66,11.22-3.49,15.89-1.42,2.26-3.41,4.02-5.81,5.14h-.04c-8-3.87-18.53-9.64-27.26-16.78-8.74-7.16-15.65-15.68-16.42-24.99-.02-.4-.04-.79-.04-1.18,0-10.23,7.98-18.39,15.87-24.4,6.55-4.97,13.87-9.08,21.27-12.76,2.48-1.25,4.99-2.45,7.53-3.61.11-.05.16-.18.12-.3-.05-.11-.18-.17-.29-.13-15.69,5.56-32.33,12.32-43.27,25.74h0c-4.11,5.56-5.88,11.03-5.88,16.3,0,10.89,7.51,20.88,17.25,29.17Z"/>
      <path class="cls-1" d="M201.85,72.28h0c4.11-5.56,5.88-11.03,5.88-16.3,0-10.89-7.51-20.88-17.25-29.17-9.75-8.29-21.75-14.88-30.83-18.94l-.09-.02h-.13s-.09,0-.09,0c-5.58,2.03-9.23,5.58-11.48,10.01-2.25,4.43-3.09,9.73-3.09,15.29,0,10.76,3.17,22.47,5.57,30.7,1.01,3.71,1.49,7.4,1.49,11.03,0,11.54-4.81,22.47-12.59,31.21-.13.15-.2.32-.2.49,0,.41.33.74.75.75.17,0,.35-.07.5-.21,8.16-7.7,13.95-18.01,15.13-29.27,0,0,0,0,0,0,0,0,0,0,0,0h0c.2-1.51.29-3.03.29-4.54,0-5.94-1.39-11.87-2.85-17.5-1.54-6.85-2.79-13.93-2.85-20.88v-.03c0-5.69.66-11.22,3.49-15.89,1.42-2.26,3.41-4.02,5.81-5.14h.04c8,3.87,18.53,9.64,27.26,16.78,8.74,7.16,15.65,15.68,16.42,24.99.02.4.04.79.04,1.18,0,10.23-7.98,18.39-15.87,24.4-6.55,4.97-13.87,9.08-21.27,12.76-2.48,1.25-4.99,2.45-7.53,3.61-.11.05-.16.18-.12.3s.18.17.29.13c15.69-5.56,32.33-12.32,43.27-25.74Z"/>
      <g>
        <path class="cls-2" d="M51.48,120.97c-17.74,1.35-27.91,20.94-16.76,35.4,10.91,14.17,35.5,10.41,40.61-6.93,4.55-15.44-8.14-29.66-23.85-28.47ZM55.57,164.07c-26.03,2.59-26.23-39.68-5.15-42.06,26.43-2.99,26.95,39.9,5.15,42.06Z"/>
        <path class="cls-2" d="M227.82,147.6c1.78,0,6.27-1.67,7.84-2.67,5.98-3.77,7.45-12.98,2.68-18.29-1.68-1.87-6.98-4.71-9.47-4.71h-22.74l3.17,1.43c.8.75,1.07,1.89,1.27,2.92-.55,10.65.83,22.18.04,32.72-.13,1.73-.53,3.53-2.28,4.28l-2.21.81h14.2l-2.76-1.04c-.53-.36-1.71-2.22-1.71-2.75v-12.7h11.96ZM215.85,122.72h10.91c.67,0,3.06.86,3.78,1.21,9.47,4.63,6.46,22.88-5.36,22.88h-9.33v-24.1Z"/>
        <path class="cls-2" d="M176.28,131.63c-1.49-5.19,2.72-9.15,7.66-9.66,7.22-.75,12.65,1.81,16.02,8.08.19.35-.08.67.64.53v-4.85c0-.63-4.65-2.91-5.45-3.21-8.61-3.24-25.46-1.96-24.25,10.54,1.13,11.69,25.47,11.09,26.55,20.96,1.48,13.55-20.37,12.78-25.11,2.49-.24-.53-.78-3.38-1.19-1.97-.43,1.44-.57,2.99-.99,4.43,7.52,8.97,34.01,8.94,32.51-6.49-1.15-11.89-23.67-11.39-26.4-20.85Z"/>
        <path class="cls-2" d="M100.77,159.98c-.69-4.8.32-10.91,0-15.85l12.44-20.08,1.85-1.3,2.47-.82h-8.15c.35.59,1.38.33,1.98.77.44.31.69.96.4,1.45l-11.72,18.99-10.7-17.1c-.44-.98-.95-2.74.06-3.44.48-.33,1.4-.16,1.57-.67h-14.2l3.3,1.04c2.49,1.53,3.93,4.19,5.49,6.58,3.4,5.21,6.39,10.71,9.76,15.94.37,1.23.32,13.16.06,14.75-.12.72-.7,1.92-1.24,2.43l-3.17,1.43h14.2l-3.17-1.43c-.67-.63-1.1-1.8-1.23-2.7Z"/>
        <path class="cls-2" d="M149.29,159.57l-16.92-37.37c-.55-.11-.36.22-.51.53-6.01,12.62-10.88,25.83-16.87,38.47l-1.85,2.09-2.46.82h8.15l-2.62-.92c-.46-.29-.63-.71-.48-1.24l6.31-14.3,16.27.08,5.45,12.38c.06,1.16.45,2.67-.75,3.32-.56.3-1.56.14-1.82.68h14.2l-3.4-1.2c-1.19-.94-1.96-2.04-2.69-3.34ZM122.52,146.82l7.62-17.29,7.63,17.29h-15.25Z"/>
        <path class="cls-2" d="M266.07,164.1h14.2l-2.77-.78c-1.63-.66-2.43-2.09-3.32-3.5l-16.92-37.63c-.55,0-1.25,1.93-1.49,2.44-5.53,11.84-10.24,24.09-15.68,35.98l-1.64,2.3-2.88,1.19h8.15l-2.51-.77c-.47-.36-.76-.81-.64-1.42l6.01-14.15.41-.17,15.92.15c.35.21,3.06,6.36,3.46,7.29.8,1.88,3.34,6.46,1.81,8.11l-2.12.98ZM247.14,146.82l7.88-17.29,7.36,17.29h-15.25Z"/>
        <path class="cls-2" d="M14.29,122.76c1.66,1.08,2.02,2.7,2.27,4.55-.47,9.16.64,18.95.01,28.03-.24,3.51-1.45,8.31-5.66,8.76-3.47.38-6.52-.65-8.65-3.43-.9-1.17-1.22-2.63-2.26-3.64v5.24c7.75,5.18,20.51,3.32,21.56-7.47.85-8.76-.88-18.98.03-27.73.14-1.31.56-2.69,1.37-3.74l3.07-1.4h-13.93l2.2.82Z"/>
      </g>
    </g>
  </g>
</svg>